<svg width="408" height="204" viewBox="0 0 408 204" fill="none" xmlns="http://www.w3.org/2000/svg">
<path d="M378.762 180.642C376.191 180.917 373.62 180.726 371.042 180.716L44.3463 180.701C39.5903 180.702 33.3682 181.122 28.7828 180.616C13.5875 178.939 1.9084 165.091 0.866267 150.202C0.433201 144.015 0.801086 136.673 0.800389 130.374L0.7884 63.2312C0.788073 58.2073 0.32174 52.616 1.19628 47.6762C3.7361 33.3306 16.1364 22.3736 30.6284 21.4022C32.2893 21.2281 34.105 21.3921 35.7799 21.3968L358.513 21.4157C365.285 21.4156 372.481 20.9797 379.19 21.6192C393.366 22.9705 405.462 35.7446 407 49.7222C407.63 55.4242 407.203 62.1355 407.203 67.9288L407.207 135.24C407.211 140.887 407.701 147.512 406.825 153.053C404.641 166.917 392.924 179.089 378.762 180.642ZM43.7622 45.6996C29.5107 46.9626 31.2843 61.0171 31.2842 71.0338L31.2869 128.123C31.2811 137.966 28.4393 157.629 42.9928 158.441C49.6571 158.812 56.4963 158.516 63.1761 158.516L348.374 158.52C353.832 158.522 359.49 159.019 364.919 158.404C378.169 157.961 377.122 143.316 377.109 134.338L377.096 76.245C377.097 65.9155 380.33 46.8359 365.269 45.7211C360.709 45.3836 355.361 45.7462 350.693 45.7466L49.9033 45.7338C47.8689 45.7215 45.7899 45.5123 43.7622 45.6996Z" fill="black"/>
<path d="M288.37 142.522C285.074 147 267.077 140.764 273.072 127.876C276.546 120.408 291.008 110.513 295.848 103.189C297.779 100.267 292.298 96.6081 290.481 94.7283L278.781 82.658C276.177 79.9921 273.117 77.7787 272.385 73.935C271.06 66.9783 275.296 61.3193 282.139 60.0614C287.812 59.4502 290.776 63.5167 294.346 67.0986L304.658 77.5791C311.421 84.4123 327.901 95.9877 323.556 106.363C322.689 108.434 291.455 141.294 288.37 142.522Z" fill="black"/>
<path d="M107.625 101.91C103.569 92.742 86.6472 83.0847 84.4168 74.7346C82.5764 67.8445 86.2982 61.895 93.0892 60.1881C101.122 59.3342 105.52 66.6551 110.554 71.7364C117.55 78.7987 124.643 85.7622 131.513 92.9476C139.147 100.93 135.464 106.477 128.836 113.196L106.275 136.331C104.416 138.258 102.676 140.312 100.735 142.155C91.5615 149.123 78.3541 137.958 84.6343 126.928C85.8615 124.772 87.9605 122.9 89.663 121.114L99.8682 110.612C102.525 107.896 105.589 105.128 107.625 101.91Z" fill="black"/>
<path d="M158.639 131.872C144.263 131.275 144.21 132.348 144.222 117.073L144.229 86.0124C144.234 79.3119 142.66 71.2392 151.816 70.8049C158.563 70.6224 165.226 69.7147 165.591 78.307C166 87.9699 165.672 97.7723 165.67 107.448L165.664 118.51C165.659 124.359 166.697 131.645 158.639 131.872Z" fill="black"/>
<path d="M191.508 131.655C178.271 132.265 176.154 132.6 176.144 119.053L176.141 87.7106C176.135 81.9491 174.27 71.9288 182.126 70.7829C197.06 70.0036 197.399 71.7264 197.416 84.7298L197.427 116.158C197.425 121.765 199.191 130.725 191.508 131.655Z" fill="black"/>
<path d="M223.561 131.678C209.714 133.146 207.793 131.472 207.788 118.761L207.793 87.5345C207.798 82.1599 205.945 72.1165 213.194 70.8188C228.127 69.747 229.148 70.9037 229.151 85.0343L229.155 117.915C229.162 122.979 230.678 130.845 223.561 131.678Z" fill="black"/>
<path d="M255.682 131.78C254.779 132.059 247.122 131.952 245.907 131.808C238.232 130.897 240.031 121.19 240.03 115.697L240.009 85.5327C239.977 80.2155 238.513 72.9229 244.937 70.8188C258.565 69.1852 261.307 71.1423 261.29 83.7122L261.289 115.379C261.29 120.683 263.157 130.915 255.682 131.78Z" fill="black"/>
</svg>
