<svg width="44" height="36" viewBox="0 0 44 36" fill="none" xmlns="http://www.w3.org/2000/svg">
<path fill-rule="evenodd" clip-rule="evenodd" d="M3.455 3.455C1.119 5.79 1 6.496 1 18C1 29.504 1.119 30.21 3.455 32.545C5.857 34.948 6.249 35 22 35C37.751 35 38.143 34.948 40.545 32.545C42.881 30.21 43 29.504 43 18C43 6.496 42.881 5.79 40.545 3.455C38.143 1.052 37.751 1 22 1C6.249 1 5.857 1.052 3.455 3.455ZM40 18C40 32 40 32 22 32C4 32 4 32 4 18C4 4 4 4 22 4C40 4 40 4 40 18ZM12.64 10.622C8.072 12.998 7.818 13.338 8.405 16.273C9.224 20.372 11.658 24 13.589 24C14.437 24 15.967 23.553 16.988 23.007C18.561 22.164 18.943 22.464 19.494 24.975C20.022 27.379 20.803 28.06 23.636 28.591C27.329 29.284 34.709 28.624 35.833 27.501C36.749 26.584 36.678 16.345 35.749 15.416C35.336 15.002 32.549 14.461 29.555 14.213C24.629 13.804 24.017 13.488 23.108 10.881C21.842 7.248 19.247 7.184 12.64 10.622ZM21.565 12.206C21.989 13.542 21.819 14.56 21.133 14.789C20.51 14.997 20 15.804 20 16.583C20 18.627 16.325 22 14.098 22C12.863 22 11.81 20.895 11.098 18.851C10.494 17.119 10 15.329 10 14.875C10 13.792 17.017 10.101 19.183 10.044C20.108 10.02 21.18 10.993 21.565 12.206ZM34 21.5C34 26 34 26 28 26C22 26 22 26 22 21.5C22 17 22 17 28 17C34 17 34 17 34 21.5Z" fill="#94989E" stroke="#94989E"/>
</svg>
