<svg width="41" height="40" viewBox="0 0 41 40" fill="none" xmlns="http://www.w3.org/2000/svg">
<path d="M19.9979 0.000182991C19.6004 0.00638613 19.2217 0.169935 18.9448 0.454906C18.668 0.739878 18.5157 1.12297 18.5214 1.52003V4.51681C18.5186 4.71536 18.5553 4.91249 18.6294 5.09675C18.7035 5.281 18.8136 5.4487 18.9531 5.59011C19.0927 5.73151 19.259 5.84379 19.4424 5.92043C19.6258 5.99707 19.8226 6.03654 20.0214 6.03654C20.2202 6.03654 20.417 5.99707 20.6003 5.92043C20.7837 5.84379 20.95 5.73151 21.0896 5.59011C21.2292 5.4487 21.3392 5.281 21.4133 5.09675C21.4875 4.91249 21.5242 4.71536 21.5214 4.51681V1.52003C21.5242 1.31948 21.4868 1.1204 21.4112 0.934571C21.3357 0.748747 21.2235 0.579966 21.0815 0.438232C20.9394 0.296498 20.7703 0.184696 20.5842 0.10945C20.398 0.0342053 20.1987 -0.00295126 19.9979 0.000182991ZM6.92371 5.42013C6.62519 5.42021 6.33347 5.50925 6.0859 5.67586C5.83832 5.84247 5.64613 6.07908 5.53392 6.35542C5.42172 6.63175 5.3946 6.93524 5.45603 7.22706C5.51747 7.51888 5.66466 7.78575 5.87879 7.99354L7.99988 10.1124C8.28141 10.3936 8.66325 10.5516 9.0614 10.5516C9.45955 10.5516 9.84139 10.3936 10.1229 10.1124C10.4045 9.83112 10.5626 9.44969 10.5626 9.05197C10.5626 8.65425 10.4045 8.27282 10.1229 7.99159L8.00183 5.87277C7.86162 5.72906 7.69394 5.61494 7.50874 5.53718C7.32354 5.45943 7.1246 5.41963 6.92371 5.42013ZM33.0721 5.42013C32.6826 5.43147 32.3127 5.59381 32.0409 5.87277L29.9198 7.99159C29.6383 8.27282 29.4801 8.65425 29.4801 9.05197C29.4801 9.44969 29.6383 9.83112 29.9198 10.1124C30.2013 10.3936 30.5832 10.5516 30.9813 10.5516C31.3795 10.5516 31.7613 10.3936 32.0428 10.1124L34.1639 7.99354C34.3812 7.78302 34.5296 7.51178 34.5897 7.21545C34.6498 6.91912 34.6188 6.61156 34.5006 6.33318C34.3825 6.0548 34.1829 5.81862 33.9279 5.65567C33.673 5.49271 33.3747 5.41061 33.0721 5.42013ZM20.0214 9.01197C17.104 9.01197 14.3061 10.1697 12.2432 12.2303C10.1803 14.291 9.02136 17.0859 9.02136 20.0002C9.02136 22.9144 10.1803 25.7093 12.2432 27.77C14.3061 29.8307 17.104 30.9883 20.0214 30.9883C22.9387 30.9883 25.7366 29.8307 27.7995 27.77C29.8624 25.7093 31.0214 22.9144 31.0214 20.0002C31.0214 17.0859 29.8624 14.291 27.7995 12.2303C25.7366 10.1697 22.9387 9.01197 20.0214 9.01197ZM1.52136 18.5018C1.3226 18.499 1.12525 18.5356 0.940799 18.6097C0.756347 18.6837 0.588465 18.7936 0.446911 18.9331C0.305356 19.0725 0.192952 19.2386 0.11623 19.4218C0.0395089 19.605 0 19.8016 0 20.0002C0 20.1987 0.0395089 20.3953 0.11623 20.5785C0.192952 20.7617 0.305356 20.9278 0.446911 21.0672C0.588465 21.2067 0.756347 21.3166 0.940799 21.3906C1.12525 21.4647 1.3226 21.5013 1.52136 21.4985H4.52136C4.72013 21.5013 4.91748 21.4647 5.10193 21.3906C5.28638 21.3166 5.45426 21.2067 5.59582 21.0672C5.73737 20.9278 5.84978 20.7617 5.9265 20.5785C6.00322 20.3953 6.04273 20.1987 6.04273 20.0002C6.04273 19.8016 6.00322 19.605 5.9265 19.4218C5.84978 19.2386 5.73737 19.0725 5.59582 18.9331C5.45426 18.7936 5.28638 18.6837 5.10193 18.6097C4.91748 18.5356 4.72013 18.499 4.52136 18.5018H1.52136ZM35.5214 18.5018C35.3226 18.499 35.1252 18.5356 34.9408 18.6097C34.7563 18.6837 34.5885 18.7936 34.4469 18.9331C34.3054 19.0725 34.193 19.2386 34.1162 19.4218C34.0395 19.605 34 19.8016 34 20.0002C34 20.1987 34.0395 20.3953 34.1162 20.5785C34.193 20.7617 34.3054 20.9278 34.4469 21.0672C34.5885 21.2067 34.7563 21.3166 34.9408 21.3906C35.1252 21.4647 35.3226 21.5013 35.5214 21.4985H38.5214C38.7201 21.5013 38.9175 21.4647 39.1019 21.3906C39.2864 21.3166 39.4543 21.2067 39.5958 21.0672C39.7374 20.9278 39.8498 20.7617 39.9265 20.5785C40.0032 20.3953 40.0427 20.1987 40.0427 20.0002C40.0427 19.8016 40.0032 19.605 39.9265 19.4218C39.8498 19.2386 39.7374 19.0725 39.5958 18.9331C39.4543 18.7936 39.2864 18.6837 39.1019 18.6097C38.9175 18.5356 38.7201 18.499 38.5214 18.5018H35.5214ZM9.03113 29.4353C8.64157 29.4467 8.27172 29.609 7.99988 29.888L5.87879 32.0068C5.73934 32.146 5.62871 32.3113 5.55323 32.4933C5.47774 32.6752 5.43888 32.8703 5.43886 33.0672C5.43884 33.2642 5.47766 33.4592 5.5531 33.6412C5.62855 33.8231 5.73914 33.9885 5.87856 34.1278C6.01798 34.267 6.1835 34.3775 6.36566 34.4529C6.54783 34.5282 6.74307 34.567 6.94024 34.567C7.13741 34.567 7.33265 34.5281 7.5148 34.4527C7.69695 34.3773 7.86244 34.2668 8.00183 34.1275L10.1229 32.0087C10.3402 31.7982 10.4886 31.527 10.5487 31.2306C10.6088 30.9343 10.5777 30.6267 10.4596 30.3484C10.3415 30.07 10.1419 29.8338 9.88694 29.6708C9.63199 29.5079 9.33365 29.4258 9.03113 29.4353ZM30.9647 29.4353C30.6662 29.4354 30.3745 29.5244 30.1269 29.691C29.8793 29.8577 29.6871 30.0943 29.5749 30.3706C29.4627 30.6469 29.4356 30.9504 29.497 31.2422C29.5585 31.5341 29.7057 31.8009 29.9198 32.0087L32.0409 34.1275C32.1803 34.2668 32.3458 34.3772 32.5279 34.4526C32.7101 34.528 32.9053 34.5668 33.1024 34.5668C33.2996 34.5668 33.4948 34.528 33.6769 34.4526C33.859 34.3772 34.0245 34.2668 34.1639 34.1275C34.3033 33.9883 34.4139 33.823 34.4894 33.641C34.5648 33.4591 34.6036 33.2641 34.6036 33.0671C34.6036 32.8702 34.5648 32.6752 34.4894 32.4933C34.4139 32.3113 34.3033 32.146 34.1639 32.0068L32.0428 29.888C31.9026 29.7442 31.735 29.6301 31.5498 29.5524C31.3646 29.4746 31.1656 29.4348 30.9647 29.4353ZM19.9979 33.9636C19.6004 33.9698 19.2217 34.1334 18.9448 34.4184C18.668 34.7033 18.5157 35.0864 18.5214 35.4835V38.4803C18.5186 38.6788 18.5553 38.876 18.6294 39.0602C18.7035 39.2445 18.8136 39.4122 18.9531 39.5536C19.0927 39.695 19.259 39.8073 19.4424 39.8839C19.6258 39.9605 19.8226 40 20.0214 40C20.2202 40 20.417 39.9605 20.6003 39.8839C20.7837 39.8073 20.95 39.695 21.0896 39.5536C21.2292 39.4122 21.3392 39.2445 21.4133 39.0602C21.4875 38.876 21.5242 38.6788 21.5214 38.4803V35.4835C21.5242 35.2829 21.4868 35.0839 21.4112 34.898C21.3357 34.7122 21.2235 34.5434 21.0815 34.4017C20.9394 34.26 20.7703 34.1482 20.5842 34.0729C20.398 33.9977 20.1987 33.9605 19.9979 33.9636Z" fill="black"/>
</svg>
