<svg width="40" height="32" viewBox="0 0 40 32" fill="none" xmlns="http://www.w3.org/2000/svg">
<path d="M10.6691 9.09947C10.6691 6.19437 11.4527 3.47641 12.8099 1.13012C13.1387 0.562569 12.6429 -0.138783 12.0071 0.0238748C4.67879 1.9058 -0.621566 8.83187 0.058797 16.893C0.702431 24.5021 6.85194 30.7128 14.4557 31.4247C19.7316 31.9187 24.5274 29.8409 27.7665 26.3106C28.2038 25.8331 27.8304 25.0583 27.1841 25.0854C27.0127 25.0932 26.8387 25.0967 26.6647 25.0967C17.8304 25.0967 10.6691 17.9354 10.6691 9.09947Z" fill="black"/>
<path d="M20.2398 0.645653L21.0417 2.94822L23.4798 3.00156C23.7894 3.00856 23.9153 3.40034 23.6704 3.58661L21.7282 5.06189L22.4321 7.39594C22.5231 7.69152 22.1881 7.93289 21.9354 7.75798L19.9311 6.36753L17.9284 7.75798C17.6748 7.93376 17.3434 7.69152 17.4308 7.39594L18.1348 5.06189L16.1926 3.58661C15.9477 3.40034 16.0754 3.00856 16.3832 3.00156L18.8213 2.94822L19.6241 0.645653C19.7255 0.354444 20.1374 0.354444 20.2398 0.645653Z" fill="black"/>
<path d="M35.2077 18.8703L35.9782 21.0828L38.321 21.1326C38.6612 21.1405 38.8011 21.5716 38.5309 21.7771L36.6647 23.1947L37.3398 25.4369C37.4369 25.7614 37.0696 26.029 36.7915 25.834L34.8667 24.4986L32.9428 25.834C32.6647 26.029 32.2965 25.7614 32.3953 25.4369L33.0705 23.1947L31.2051 21.7771C30.9341 21.5725 31.0748 21.1396 31.4133 21.1326L33.7561 21.0828L34.5291 18.8703C34.6411 18.5502 35.0949 18.5502 35.2077 18.8703Z" fill="black"/>
<path d="M34.9155 2.83018L36.0742 6.15242L39.5906 6.22763C39.9858 6.23637 40.1494 6.73834 39.8337 6.97795L37.0318 9.10649L38.0479 12.476C38.1625 12.8546 37.7366 13.1651 37.4104 12.9386L34.5193 10.9325L31.6291 12.9386C31.3038 13.1651 30.877 12.8537 30.9916 12.476L32.0069 9.10649L29.2041 6.97795C28.891 6.73921 29.0537 6.2355 29.4481 6.22763L32.9653 6.15242L34.1232 2.83018C34.257 2.45765 34.7843 2.45765 34.9155 2.83018Z" fill="black"/>
</svg>
