<svg width="58" height="37" viewBox="0 0 58 37" fill="none" xmlns="http://www.w3.org/2000/svg">
<path fill-rule="evenodd" clip-rule="evenodd" d="M23 1.92479C20.194 4.73079 20.232 13.0378 23.069 17.0218C26.195 21.4118 25.29 23.9988 19.543 27.0988C14.159 30.0018 12 32.2968 12 35.1158C12 36.7898 13.265 36.9248 29 36.9248C44.735 36.9248 46 36.7898 46 35.1158C46 32.2968 43.841 30.0018 38.457 27.0988C32.71 23.9988 31.805 21.4118 34.931 17.0218C36.363 15.0098 37 12.5688 37 9.08879C37 4.68079 36.642 3.80579 34.096 1.99279C30.401 -0.638206 25.592 -0.667206 23 1.92479ZM9.249 6.27179C7.518 7.98279 7.032 9.52979 7.147 12.9608C7.231 15.4638 8.11 18.5908 9.148 20.0788C10.167 21.5388 11 23.2208 11 23.8168C11 24.4128 9.088 26.0788 6.75 27.5208C1.8 30.5738 0 32.5988 0 35.1158C0 36.5168 0.79 36.9248 3.5 36.9248C6.686 36.9248 7 36.6678 7 34.0598C7 30.5208 10.005 26.5778 15.2 23.2988C19.041 20.8738 19.107 20.7378 17.576 18.3998C16.581 16.8818 16 13.7688 16 9.95979C16 4.34979 15.841 3.92879 13.75 3.98479C12.512 4.01879 10.487 5.04779 9.249 6.27179ZM42 9.95979C42 13.7688 41.419 16.8818 40.424 18.3998C38.893 20.7378 38.959 20.8738 42.8 23.2988C47.995 26.5778 51 30.5208 51 34.0598C51 36.6678 51.314 36.9248 54.5 36.9248C57.21 36.9248 58 36.5168 58 35.1158C58 32.5988 56.2 30.5738 51.25 27.5208C48.913 26.0788 47 24.4128 47 23.8168C47 23.2208 47.834 21.5388 48.853 20.0788C49.912 18.5618 50.77 15.4678 50.854 12.8558C50.975 9.11879 50.546 7.89079 48.494 6.10579C47.114 4.90679 45.088 3.92479 43.992 3.92479C42.223 3.92479 42 4.59879 42 9.95979Z" fill="#94989E"/>
</svg>
